<svg
	xmlns="http://www.w3.org/2000/svg"
	width="24"
	height="24"
	viewBox="0 0 24 24"
	fill="none"
>
	<path
		fill-rule="evenodd"
		clip-rule="evenodd"
		d="M4.26033 14.5465L9.87225 3.31582C10.7489 1.56139 13.2511 1.5614 14.1278 3.31583L19.7397 14.5465C20.7378 16.5439 18.6853 18.6932 16.6458 17.7862L12.9662 16.1498C12.8952 16.1183 12.823 16.0903 12.75 16.066L12.75 12C12.75 11.5858 12.4142 11.25 12 11.25C11.5858 11.25 11.25 11.5858 11.25 12L11.25 16.066C11.177 16.0903 11.1048 16.1182 11.0338 16.1498L7.35425 17.7862C5.31474 18.6932 3.26221 16.5439 4.26033 14.5465ZM10 22.75C9.58579 22.75 9.25 22.4142 9.25 22L9.25 20C9.25 19.5858 9.58579 19.25 10 19.25C10.4142 19.25 10.75 19.5858 10.75 20L10.75 22C10.75 22.4142 10.4142 22.75 10 22.75ZM13.25 22C13.25 22.4142 13.5858 22.75 14 22.75C14.4142 22.75 14.75 22.4142 14.75 22L14.75 20C14.75 19.5858 14.4142 19.25 14 19.25C13.5858 19.25 13.25 19.5858 13.25 20L13.25 22Z"
		fill="#FF521A"
	/>
</svg>
