<svg
	xmlns="http://www.w3.org/2000/svg"
	width="24"
	height="24"
	viewBox="0 0 24 24"
	fill="none"
>
	<path
		fill-rule="evenodd"
		clip-rule="evenodd"
		d="M18.5 11.5V6H20V11.5C20 11.9142 19.6642 12.25 19.25 12.25C18.8358 12.25 18.5 11.9142 18.5 11.5Z"
		fill="#FF521A"
	/>
	<path d="M16 10V7H8V10C8 12.2091 9.79086 14 12 14C14.2091 14 16 12.2091 16 10Z" fill="#FF521A" />
	<path
		d="M4.02789 5.54139L10.7814 2.53982C11.5571 2.19506 12.4426 2.19506 13.2183 2.53982L19.9718 5.54139C20.3677 5.71735 20.3677 6.27924 19.9718 6.4552L13.2183 9.45678C12.4426 9.80153 11.5571 9.80153 10.7814 9.45678L4.02789 6.4552C3.63198 6.27924 3.63198 5.71735 4.02789 5.54139Z"
		fill="#FF521A"
	/>
	<path
		d="M14.2996 15.3974L12.711 17.0037C12.3196 17.3995 11.6804 17.3995 11.289 17.0037L9.70045 15.3974C9.45505 15.1493 9.09681 15.0435 8.762 15.142C5.95686 15.9669 4 17.8307 4 19.9979C4 21.1024 4.89543 21.9979 6 21.9979H18C19.1046 21.9979 20 21.1024 20 19.9979C20 17.8307 18.0431 15.9669 15.238 15.142C14.9032 15.0435 14.5449 15.1493 14.2996 15.3974Z"
		fill="#FF521A"
	/>
</svg>
