<svg width="30" height="30" viewBox="0 0 30 30" fill="none" xmlns="http://www.w3.org/2000/svg">
<path fill-rule="evenodd" clip-rule="evenodd" d="M20.2435 23.441C20.9855 24.3809 21.8759 25.4444 21.8759 25.4444C27.3421 25.2713 29.4444 21.6849 29.4444 21.6849C29.4444 13.7207 25.8828 7.26521 25.8828 7.26521C22.3211 4.59397 18.9326 4.66817 18.9326 4.66817L18.5864 5.06391C22.7911 6.35006 24.745 8.20509 24.745 8.20509C22.1727 6.79527 19.6499 6.10273 17.3002 5.83066C15.5194 5.63279 13.8128 5.68225 12.304 5.88012C12.1745 5.88012 12.0638 5.89897 11.939 5.92022C11.9209 5.92331 11.9024 5.92645 11.8835 5.92959C11.0179 6.00379 8.91551 6.32533 6.26901 7.48781C5.35387 7.90828 4.80973 8.20509 4.80973 8.20509C4.80973 8.20509 6.86262 6.25113 11.3147 4.96498L11.0673 4.66817C11.0673 4.66817 7.67883 4.59397 4.11719 7.26521C4.11719 7.26521 0.555542 13.7207 0.555542 21.6849C0.555542 21.6849 2.63317 25.2713 8.0993 25.4444C8.0993 25.4444 9.01445 24.3314 9.75646 23.3915C6.61528 22.4517 5.42807 20.473 5.42807 20.473C5.42807 20.473 5.67541 20.6461 6.12061 20.8934C6.14534 20.9182 6.17008 20.9429 6.21954 20.9676C6.25664 20.9924 6.29375 21.0109 6.33085 21.0295C6.36795 21.048 6.40505 21.0666 6.44215 21.0913C7.06049 21.4376 7.67883 21.7097 8.2477 21.9323C9.26178 22.328 10.4737 22.7237 11.8835 22.9958C13.7386 23.3421 15.9151 23.4657 18.2896 23.0205C19.452 22.8227 20.6393 22.4764 21.8759 21.957C22.7416 21.6355 23.7062 21.1655 24.7203 20.4977C24.7203 20.4977 23.4836 22.5259 20.2435 23.441ZM7.85144 16.6386C7.85144 15.1299 8.96445 13.8932 10.3743 13.8932C11.7841 13.8932 12.9218 15.1299 12.8971 16.6386C12.8971 18.1474 11.7841 19.3841 10.3743 19.3841C8.98919 19.3841 7.85144 18.1474 7.85144 16.6386ZM16.8792 16.6386C16.8792 15.1299 17.9922 13.8932 19.4021 13.8932C20.8119 13.8932 21.9249 15.1299 21.9249 16.6386C21.9249 18.1474 20.8119 19.3841 19.4021 19.3841C18.017 19.3841 16.8792 18.1474 16.8792 16.6386Z" fill="white"/>
</svg>
