<svg width="30" height="30" viewBox="0 0 30 30" fill="none" xmlns="http://www.w3.org/2000/svg">
<g clip-path="url(#clip0_3435_1837)">
<path fill-rule="evenodd" clip-rule="evenodd" d="M14.9998 0.0195312C23.2737 0.0195312 29.9811 6.72687 29.9811 15.0008C29.9811 22.4783 24.5028 28.676 17.3409 29.8V19.3314H20.8316L21.4959 15.0009H21.4956L21.4956 15.0008H17.3409V12.1906C17.3409 11.0059 17.9213 9.85103 19.7823 9.85103H21.6714V6.16423C21.6714 6.16423 21.6713 6.16422 21.6712 6.16419C21.6712 6.16419 20.8539 6.02472 19.8084 5.93836C19.3397 5.89964 18.825 5.8716 18.3176 5.8716C14.8956 5.8716 12.659 7.94556 12.659 11.7003V15.0008H8.85514V19.3313H8.85541V19.3314H12.659V29.8001C5.49695 28.6762 0.0185242 22.4784 0.0185242 15.0008C0.0185242 6.72687 6.72586 0.0195312 14.9998 0.0195312Z" fill="white"/>
</g>
<defs>
<clipPath id="clip0_3435_1837">
<rect width="30" height="30" fill="white"/>
</clipPath>
</defs>
</svg>
