<svg width="26" height="18" viewBox="0 0 26 18" fill="none" xmlns="http://www.w3.org/2000/svg">
<g clip-path="url(#clip0_3427_164657)">
<path d="M0 0H26V18.001H0V0Z" fill="white"/>
<path d="M14.625 0H11.375V7.31279H0V10.6879H11.375V18.0007H14.625V10.6879H26V7.31279H14.625V0Z" fill="#D80027"/>
<path d="M19.997 12.1309L26.0001 15.5944V12.1309H19.997ZM15.8262 12.1309L26.0001 18.0007V16.3408L18.7032 12.1309H15.8262ZM23.2901 18.0007L15.8262 13.694V18.0007H23.2901Z" fill="#0052B4"/>
<path d="M15.8262 12.1309L26.0001 18.0007V16.3408L18.7032 12.1309H15.8262Z" fill="white"/>
<path d="M15.8262 12.1309L26.0001 18.0007V16.3408L18.7032 12.1309H15.8262Z" fill="#D80027"/>
<path d="M4.58763 12.1309L0 14.7777V12.1309H4.58763ZM10.1739 12.8773V18.0007H1.29446L10.1739 12.8773Z" fill="#0052B4"/>
<path d="M7.29691 12.1309L0 16.3408V18.0007L10.1739 12.1309H7.29691Z" fill="#D80027"/>
<path d="M6.00311 5.86981L0 2.40627V5.86981H6.00311ZM10.1739 5.86981L0 0V1.65984L7.29691 5.86981H10.1739ZM2.70999 0L10.1739 4.30669V0H2.70999Z" fill="#0052B4"/>
<path d="M10.1739 5.86981L0 0V1.65984L7.29691 5.86981H10.1739Z" fill="white"/>
<path d="M10.1739 5.86981L0 0V1.65984L7.29691 5.86981H10.1739Z" fill="#D80027"/>
<path d="M21.4125 5.86986L26.0001 3.223V5.86986H21.4125ZM15.8262 5.12343V0H24.7056L15.8262 5.12343Z" fill="#0052B4"/>
<path d="M18.7032 5.86981L26.0001 1.65984V0L15.8262 5.86981H18.7032Z" fill="#D80027"/>
</g>
<defs>
<clipPath id="clip0_3427_164657">
<rect width="26" height="18.0008" fill="white"/>
</clipPath>
</defs>
</svg>
