<svg width="30" height="30" viewBox="0 0 30 30" fill="none" xmlns="http://www.w3.org/2000/svg">
<path d="M14.9875 17.375V12.725H26.6875C26.8625 13.5125 27 14.25 27 15.2875C27 22.425 22.2125 27.5 15 27.5C8.1 27.5 2.5 21.9 2.5 15C2.5 8.1 8.1 2.5 15 2.5C18.375 2.5 21.2 3.7375 23.3625 5.7625L19.8125 9.2125C18.9125 8.3625 17.3375 7.3625 15 7.3625C10.8625 7.3625 7.4875 10.8 7.4875 15.0125C7.4875 19.225 10.8625 22.6625 15 22.6625C19.7875 22.6625 21.55 19.35 21.875 17.3875H14.9875V17.375Z" fill="white"/>
</svg>
