<svg width="135" height="50" viewBox="0 0 135 50" fill="none" xmlns="http://www.w3.org/2000/svg">
	<path
		fill-rule="evenodd"
		clip-rule="evenodd"
		d="M0 15.5333L1.90638 22.1143L16.5015 14.5775L31.0936 22.1143L33 15.5333L16.5015 0L0 15.5333ZM2.63281 24.5296L6.62334 38.3035L7.21487 30.5566L16.5016 26.5812L25.7914 30.5597L26.3798 38.2974L30.3673 24.5296L16.5016 17.3672L2.63281 24.5296ZM16.5017 49.9999L11.132 31.5718L16.5017 29.2736L21.8715 31.5718L16.5017 49.9999Z"
		fill="#FF521A"
	></path>
	<path
		d="M52.04 8C53.1467 8 53.9667 8.29333 54.5 8.88C55.0467 9.46667 55.32 10.3267 55.32 11.46V13.28C55.32 14.4133 55.0467 15.2733 54.5 15.86C53.9667 16.4467 53.1467 16.74 52.04 16.74H51V22H48.8V8H52.04ZM51 10V14.74H52.04C52.3867 14.74 52.6533 14.6467 52.84 14.46C53.0267 14.2733 53.12 13.9267 53.12 13.42V11.32C53.12 10.8133 53.0267 10.4667 52.84 10.28C52.6533 10.0933 52.3867 10 52.04 10H51ZM66.0367 22C66.0101 21.9067 65.9834 21.82 65.9567 21.74C65.9301 21.66 65.9034 21.56 65.8767 21.44C65.8634 21.32 65.8501 21.1667 65.8367 20.98C65.8367 20.7933 65.8367 20.56 65.8367 20.28V18.08C65.8367 17.4267 65.7234 16.9667 65.4967 16.7C65.2701 16.4333 64.9034 16.3 64.3967 16.3H63.6367V22H61.4367V8H64.7567C65.9034 8 66.7301 8.26667 67.2367 8.8C67.7567 9.33333 68.0167 10.14 68.0167 11.22V12.32C68.0167 13.76 67.5367 14.7067 66.5767 15.16C67.1367 15.3867 67.5167 15.76 67.7167 16.28C67.9301 16.7867 68.0367 17.4067 68.0367 18.14V20.3C68.0367 20.6467 68.0501 20.9533 68.0767 21.22C68.1034 21.4733 68.1701 21.7333 68.2767 22H66.0367ZM63.6367 10V14.3H64.4967C64.9101 14.3 65.2301 14.1933 65.4567 13.98C65.6967 13.7667 65.8167 13.38 65.8167 12.82V11.44C65.8167 10.9333 65.7234 10.5667 65.5367 10.34C65.3634 10.1133 65.0834 10 64.6967 10H63.6367ZM76.6836 13.9H79.7036V15.9H76.6836V20H80.4836V22H74.4836V8H80.4836V10H76.6836V13.9ZM91.5069 17.94L93.0069 8H96.0669V22H93.9869V11.96L92.4669 22H90.3869L88.7469 12.1V22H86.8269V8H89.8869L91.5069 17.94ZM102.667 8H104.867V22H102.667V8ZM113.576 8V18.8C113.576 19.3067 113.676 19.66 113.876 19.86C114.089 20.06 114.369 20.16 114.716 20.16C115.062 20.16 115.336 20.06 115.536 19.86C115.749 19.66 115.856 19.3067 115.856 18.8V8H117.936V18.66C117.936 19.7933 117.656 20.6667 117.096 21.28C116.549 21.88 115.736 22.18 114.656 22.18C113.576 22.18 112.756 21.88 112.196 21.28C111.649 20.6667 111.376 19.7933 111.376 18.66V8H113.576ZM129.105 17.94L130.605 8H133.665V22H131.585V11.96L130.065 22H127.985L126.345 12.1V22H124.425V8H127.485L129.105 17.94Z"
		fill="white"
	></path>
	<path
		d="M52.12 28C53.2667 28 54.0933 28.2667 54.6 28.8C55.12 29.3333 55.38 30.14 55.38 31.22V31.72C55.38 32.44 55.2667 33.0333 55.04 33.5C54.8133 33.9667 54.4533 34.3133 53.96 34.54C54.56 34.7667 54.98 35.14 55.22 35.66C55.4733 36.1667 55.6 36.7933 55.6 37.54V38.68C55.6 39.76 55.32 40.5867 54.76 41.16C54.2 41.72 53.3667 42 52.26 42H48.8V28H52.12ZM51 35.7V40H52.26C52.6333 40 52.9133 39.9 53.1 39.7C53.3 39.5 53.4 39.14 53.4 38.62V37.4C53.4 36.7467 53.2867 36.3 53.06 36.06C52.8467 35.82 52.4867 35.7 51.98 35.7H51ZM51 30V33.7H51.86C52.2733 33.7 52.5933 33.5933 52.82 33.38C53.06 33.1667 53.18 32.78 53.18 32.22V31.44C53.18 30.9333 53.0867 30.5667 52.9 30.34C52.7267 30.1133 52.4467 30 52.06 30H51ZM62.945 38.78C62.945 39.2867 63.045 39.6467 63.245 39.86C63.4583 40.06 63.7383 40.16 64.085 40.16C64.4317 40.16 64.705 40.06 64.905 39.86C65.1183 39.6467 65.225 39.2867 65.225 38.78V31.22C65.225 30.7133 65.1183 30.36 64.905 30.16C64.705 29.9467 64.4317 29.84 64.085 29.84C63.7383 29.84 63.4583 29.9467 63.245 30.16C63.045 30.36 62.945 30.7133 62.945 31.22V38.78ZM60.745 31.36C60.745 30.2267 61.0317 29.36 61.605 28.76C62.1783 28.1467 63.005 27.84 64.085 27.84C65.165 27.84 65.9917 28.1467 66.565 28.76C67.1383 29.36 67.425 30.2267 67.425 31.36V38.64C67.425 39.7733 67.1383 40.6467 66.565 41.26C65.9917 41.86 65.165 42.16 64.085 42.16C63.005 42.16 62.1783 41.86 61.605 41.26C61.0317 40.6467 60.745 39.7733 60.745 38.64V31.36ZM74.8747 38.78C74.8747 39.2867 74.9747 39.6467 75.1747 39.86C75.388 40.06 75.668 40.16 76.0147 40.16C76.3614 40.16 76.6347 40.06 76.8347 39.86C77.048 39.6467 77.1547 39.2867 77.1547 38.78V31.22C77.1547 30.7133 77.048 30.36 76.8347 30.16C76.6347 29.9467 76.3614 29.84 76.0147 29.84C75.668 29.84 75.388 29.9467 75.1747 30.16C74.9747 30.36 74.8747 30.7133 74.8747 31.22V38.78ZM72.6747 31.36C72.6747 30.2267 72.9614 29.36 73.5347 28.76C74.108 28.1467 74.9347 27.84 76.0147 27.84C77.0947 27.84 77.9214 28.1467 78.4947 28.76C79.068 29.36 79.3547 30.2267 79.3547 31.36V38.64C79.3547 39.7733 79.068 40.6467 78.4947 41.26C77.9214 41.86 77.0947 42.16 76.0147 42.16C74.9347 42.16 74.108 41.86 73.5347 41.26C72.9614 40.6467 72.6747 39.7733 72.6747 38.64V31.36ZM84.5044 31.36C84.5044 30.2267 84.771 29.36 85.3044 28.76C85.851 28.1467 86.6644 27.84 87.7444 27.84C88.8244 27.84 89.631 28.1467 90.1644 28.76C90.711 29.36 90.9844 30.2267 90.9844 31.36V31.8H88.9044V31.22C88.9044 30.7133 88.8044 30.36 88.6044 30.16C88.4177 29.9467 88.151 29.84 87.8044 29.84C87.4577 29.84 87.1844 29.9467 86.9844 30.16C86.7977 30.36 86.7044 30.7133 86.7044 31.22C86.7044 31.7 86.811 32.1267 87.0244 32.5C87.2377 32.86 87.5044 33.2067 87.8244 33.54C88.1444 33.86 88.4844 34.1867 88.8444 34.52C89.2177 34.84 89.5644 35.1933 89.8844 35.58C90.2044 35.9667 90.471 36.4067 90.6844 36.9C90.8977 37.3933 91.0044 37.9733 91.0044 38.64C91.0044 39.7733 90.7244 40.6467 90.1644 41.26C89.6177 41.86 88.8044 42.16 87.7244 42.16C86.6444 42.16 85.8244 41.86 85.2644 41.26C84.7177 40.6467 84.4444 39.7733 84.4444 38.64V37.78H86.5244V38.78C86.5244 39.2867 86.6244 39.64 86.8244 39.84C87.0377 40.04 87.3177 40.14 87.6644 40.14C88.011 40.14 88.2844 40.04 88.4844 39.84C88.6977 39.64 88.8044 39.2867 88.8044 38.78C88.8044 38.3 88.6977 37.88 88.4844 37.52C88.271 37.1467 88.0044 36.8 87.6844 36.48C87.3644 36.1467 87.0177 35.82 86.6444 35.5C86.2844 35.1667 85.9444 34.8067 85.6244 34.42C85.3044 34.0333 85.0377 33.5933 84.8244 33.1C84.611 32.6067 84.5044 32.0267 84.5044 31.36ZM95.6248 28H102.425V30H100.125V42H97.9248V30H95.6248V28ZM107.394 28H109.594V42H107.394V28ZM117.162 31.86V42H115.182V28H117.942L120.202 36.38V28H122.162V42H119.902L117.162 31.86ZM131.038 34.2H134.118V38.64C134.118 39.7733 133.838 40.6467 133.278 41.26C132.731 41.86 131.918 42.16 130.838 42.16C129.758 42.16 128.938 41.86 128.378 41.26C127.831 40.6467 127.558 39.7733 127.558 38.64V31.36C127.558 30.2267 127.831 29.36 128.378 28.76C128.938 28.1467 129.758 27.84 130.838 27.84C131.918 27.84 132.731 28.1467 133.278 28.76C133.838 29.36 134.118 30.2267 134.118 31.36V32.72H132.038V31.22C132.038 30.7133 131.931 30.36 131.718 30.16C131.518 29.9467 131.244 29.84 130.898 29.84C130.551 29.84 130.271 29.9467 130.058 30.16C129.858 30.36 129.758 30.7133 129.758 31.22V38.78C129.758 39.2867 129.858 39.64 130.058 39.84C130.271 40.04 130.551 40.14 130.898 40.14C131.244 40.14 131.518 40.04 131.718 39.84C131.931 39.64 132.038 39.2867 132.038 38.78V36.2H131.038V34.2Z"
		fill="white"
	></path>
</svg>
