<svg width="70" height="71" viewBox="0 0 70 71" fill="none" xmlns="http://www.w3.org/2000/svg">
<path d="M35 0.00195312L65.3109 17.502V52.502L35 70.002L4.68911 52.502V17.502L35 0.00195312Z" fill="#FF521A"/>
<path fill-rule="evenodd" clip-rule="evenodd" d="M26.6656 25.8903L32.9635 22.9572C34.2668 22.3502 35.7545 22.3502 37.0578 22.9572L43.3307 25.8787C45.1651 26.733 46.3692 28.6531 46.2406 30.7524C45.7476 38.8044 43.5508 42.4444 37.6123 46.6673C36.0452 47.7817 33.9778 47.779 32.4095 46.6663C26.4893 42.4663 24.2109 38.877 23.7577 30.7241C23.6418 28.6387 24.8439 26.7387 26.6656 25.8903ZM39.4555 33.1193C39.7964 32.7297 39.757 32.1374 39.3673 31.7964C38.9776 31.4555 38.3854 31.495 38.0444 31.8846L34.457 35.9845C34.3469 36.1103 34.1572 36.1272 34.0266 36.0227L31.8356 34.2699C31.4313 33.9465 30.8413 34.012 30.5179 34.4163C30.1944 34.8206 30.26 35.4106 30.6643 35.734L32.8553 37.4869C33.7694 38.2181 35.0973 38.1002 35.8681 37.2192L39.4555 33.1193Z" fill="white"/>
</svg>
