<svg
	xmlns="http://www.w3.org/2000/svg"
	width="50"
	height="50"
	viewBox="0 0 50 50"
	fill="none"
>
	<path d="M25 0L46.6506 12.5V37.5L25 50L3.34937 37.5V12.5L25 0Z" fill="#FF521A" />
	<path
		fill-rule="evenodd"
		clip-rule="evenodd"
		d="M25 24C27.2091 24 29 22.2091 29 20C29 17.7909 27.2091 16 25 16C22.7909 16 21 17.7909 21 20C21 22.2091 22.7909 24 25 24ZM25 34C28.866 34 32 32.2091 32 30C32 27.7909 28.866 26 25 26C21.134 26 18 27.7909 18 30C18 32.2091 21.134 34 25 34Z"
		fill="white"
	/>
</svg>
