<svg width="34" height="34" viewBox="0 0 34 34" fill="none" xmlns="http://www.w3.org/2000/svg">
<path d="M14.2131 4.63515C15.353 2.2336 18.6468 2.23359 19.7868 4.63515L21.7569 8.78565C22.2096 9.73931 23.0847 10.4003 24.0969 10.5532L28.5023 11.2188C31.0514 11.6039 32.0692 14.8608 30.2247 16.7302L27.0369 19.9609C26.3044 20.7032 25.9702 21.7727 26.1431 22.8209L26.8956 27.3828C27.3311 30.0223 24.6664 32.0352 22.3864 30.789L18.4461 28.6352C17.5407 28.1403 16.4591 28.1403 15.5537 28.6352L11.6134 30.789C9.33347 32.0352 6.66877 30.0223 7.1042 27.3828L7.85674 22.8209C8.02965 21.7727 7.69541 20.7032 6.96295 19.9609L3.77516 16.7302C1.93065 14.8608 2.94847 11.6039 5.49752 11.2188L9.90295 10.5532C10.9152 10.4003 11.7902 9.73931 12.2429 8.78565L14.2131 4.63515Z" fill="#FF521A"/>
</svg>
