<svg
	xmlns="http://www.w3.org/2000/svg"
	width="24"
	height="24"
	viewBox="0 0 24 24"
	fill="none"
>
	<path
		fill-rule="evenodd"
		clip-rule="evenodd"
		d="M9.5 11C11.7091 11 13.5 9.20914 13.5 7C13.5 4.79086 11.7091 3 9.5 3C7.29086 3 5.5 4.79086 5.5 7C5.5 9.20914 7.29086 11 9.5 11ZM9.5 21C13.366 21 16.5 19.2091 16.5 17C16.5 14.7909 13.366 13 9.5 13C5.63401 13 2.5 14.7909 2.5 17C2.5 19.2091 5.63401 21 9.5 21ZM19.1364 8.75C18.6468 8.75 18.25 8.35316 18.25 7.86364C18.25 7.37411 18.6468 6.97727 19.1364 6.97727C19.6259 6.97727 20.0227 7.37411 20.0227 7.86364C20.0227 8.27785 20.3585 8.61364 20.7727 8.61364C21.1869 8.61364 21.5227 8.27785 21.5227 7.86364C21.5227 6.80782 20.8371 5.91215 19.8867 5.59763V5C19.8867 4.58579 19.5509 4.25 19.1367 4.25C18.7225 4.25 18.3867 4.58579 18.3867 5V5.5974C17.436 5.91171 16.75 6.80756 16.75 7.86364C16.75 9.16832 17.797 10.2285 19.0966 10.2497C19.1098 10.2504 19.123 10.2507 19.1364 10.2507C19.6259 10.2507 20.0227 10.6475 20.0227 11.1371C20.0227 11.6266 19.6259 12.0234 19.1364 12.0234C18.6468 12.0234 18.25 11.6266 18.25 11.1371C18.25 10.7229 17.9142 10.3871 17.5 10.3871C17.0858 10.3871 16.75 10.7229 16.75 11.1371C16.75 12.1932 17.436 13.089 18.3867 13.4033V14.0007C18.3867 14.4149 18.7225 14.7507 19.1367 14.7507C19.5509 14.7507 19.8867 14.4149 19.8867 14.0007V13.4031C20.8371 13.0886 21.5227 12.1929 21.5227 11.1371C21.5227 9.83239 20.4757 8.77225 19.1761 8.75103C19.1629 8.75035 19.1497 8.75 19.1364 8.75Z"
		fill="#FF521A"
	/>
</svg>
